<?xml version="1.0" encoding="UTF-8" standalone="no"?><svg xmlns="http://www.w3.org/2000/svg" xmlns:xlink="http://www.w3.org/1999/xlink" contentScriptType="application/ecmascript" contentStyleType="text/css" height="469px" preserveAspectRatio="none" style="width:774px;height:469px;" version="1.1" viewBox="0 0 774 469" width="774px" zoomAndPan="magnify"><defs><filter height="300%" id="f1lcb4hh29z3jm" width="300%" x="-1" y="-1"><feGaussianBlur result="blurOut" stdDeviation="2.0"/><feColorMatrix in="blurOut" result="blurOut2" type="matrix" values="0 0 0 0 0 0 0 0 0 0 0 0 0 0 0 0 0 0 .4 0"/><feOffset dx="4.0" dy="4.0" in="blurOut2" result="blurOut3"/><feBlend in="SourceGraphic" in2="blurOut3" mode="normal"/></filter></defs><g><!--MD5=[80b203d03ad313a902504f0a07d57004]
class Profesionista--><rect codeLine="1" fill="#FEFECE" filter="url(#f1lcb4hh29z3jm)" height="99.2188" id="Profesionista" style="stroke: #A80036; stroke-width: 1.5;" width="159" x="354.5" y="351"/><ellipse cx="389.75" cy="367" fill="#ADD1B2" rx="11" ry="11" style="stroke: #A80036; stroke-width: 1.0;"/><path d="M392.7188,372.6406 Q392.1406,372.9375 391.5,373.0781 Q390.8594,373.2344 390.1563,373.2344 Q387.6563,373.2344 386.3281,371.5938 Q385.0156,369.9375 385.0156,366.8125 Q385.0156,363.6875 386.3281,362.0313 Q387.6563,360.375 390.1563,360.375 Q390.8594,360.375 391.5,360.5313 Q392.1563,360.6875 392.7188,360.9844 L392.7188,363.7031 Q392.0938,363.125 391.5,362.8594 Q390.9063,362.5781 390.2813,362.5781 Q388.9375,362.5781 388.25,363.6563 Q387.5625,364.7188 387.5625,366.8125 Q387.5625,368.9063 388.25,369.9844 Q388.9375,371.0469 390.2813,371.0469 Q390.9063,371.0469 391.5,370.7813 Q392.0938,370.5 392.7188,369.9219 L392.7188,372.6406 Z "/><text fill="#000000" font-family="sans-serif" font-size="12" lengthAdjust="spacingAndGlyphs" textLength="82" x="408.25" y="371.1543">Profesionista</text><line style="stroke: #A80036; stroke-width: 1.5;" x1="355.5" x2="512.5" y1="383" y2="383"/><ellipse cx="365.5" cy="394" fill="none" rx="3" ry="3" style="stroke: #038048; stroke-width: 1.0;"/><text fill="#000000" font-family="sans-serif" font-size="11" lengthAdjust="spacingAndGlyphs" textLength="97" x="374.5" y="397.2104">nombre: Nombre</text><ellipse cx="365.5" cy="406.8047" fill="none" rx="3" ry="3" style="stroke: #038048; stroke-width: 1.0;"/><text fill="#000000" font-family="sans-serif" font-size="11" lengthAdjust="spacingAndGlyphs" textLength="78" x="374.5" y="410.0151">canal: Canal[]</text><ellipse cx="365.5" cy="419.6094" fill="none" rx="3" ry="3" style="stroke: #038048; stroke-width: 1.0;"/><text fill="#000000" font-family="sans-serif" font-size="11" lengthAdjust="spacingAndGlyphs" textLength="66" x="374.5" y="422.8198">hitos: Hito[]</text><ellipse cx="365.5" cy="432.4141" fill="none" rx="3" ry="3" style="stroke: #038048; stroke-width: 1.0;"/><text fill="#000000" font-family="sans-serif" font-size="11" lengthAdjust="spacingAndGlyphs" textLength="133" x="374.5" y="435.6245">habilidades: Habilidad[]</text><line style="stroke: #A80036; stroke-width: 1.5;" x1="355.5" x2="512.5" y1="442.2188" y2="442.2188"/><!--MD5=[668e8359e3095b7d9248b509ecb89078]
class Habilidad--><rect codeLine="8" fill="#FEFECE" filter="url(#f1lcb4hh29z3jm)" height="86.4141" id="Habilidad" style="stroke: #A80036; stroke-width: 1.5;" width="122" x="50" y="192"/><ellipse cx="79.4" cy="208" fill="#ADD1B2" rx="11" ry="11" style="stroke: #A80036; stroke-width: 1.0;"/><path d="M82.3688,213.6406 Q81.7906,213.9375 81.15,214.0781 Q80.5094,214.2344 79.8063,214.2344 Q77.3063,214.2344 75.9781,212.5938 Q74.6656,210.9375 74.6656,207.8125 Q74.6656,204.6875 75.9781,203.0313 Q77.3063,201.375 79.8063,201.375 Q80.5094,201.375 81.15,201.5313 Q81.8063,201.6875 82.3688,201.9844 L82.3688,204.7031 Q81.7438,204.125 81.15,203.8594 Q80.5563,203.5781 79.9313,203.5781 Q78.5875,203.5781 77.9,204.6563 Q77.2125,205.7188 77.2125,207.8125 Q77.2125,209.9063 77.9,210.9844 Q78.5875,212.0469 79.9313,212.0469 Q80.5563,212.0469 81.15,211.7813 Q81.7438,211.5 82.3688,210.9219 L82.3688,213.6406 Z "/><text fill="#000000" font-family="sans-serif" font-size="12" lengthAdjust="spacingAndGlyphs" textLength="58" x="96.6" y="212.1543">Habilidad</text><line style="stroke: #A80036; stroke-width: 1.5;" x1="51" x2="171" y1="224" y2="224"/><ellipse cx="61" cy="235" fill="none" rx="3" ry="3" style="stroke: #038048; stroke-width: 1.0;"/><text fill="#000000" font-family="sans-serif" font-size="11" lengthAdjust="spacingAndGlyphs" textLength="95" x="70" y="238.2104">categoria: String</text><ellipse cx="61" cy="247.8047" fill="none" rx="3" ry="3" style="stroke: #038048; stroke-width: 1.0;"/><text fill="#000000" font-family="sans-serif" font-size="11" lengthAdjust="spacingAndGlyphs" textLength="86" x="70" y="251.0151">nombre: String</text><ellipse cx="61" cy="260.6094" fill="none" rx="3" ry="3" style="stroke: #038048; stroke-width: 1.0;"/><text fill="#000000" font-family="sans-serif" font-size="11" lengthAdjust="spacingAndGlyphs" textLength="96" x="70" y="263.8198">expertiz: Expertiz</text><line style="stroke: #A80036; stroke-width: 1.5;" x1="51" x2="171" y1="270.4141" y2="270.4141"/><!--MD5=[b7a9bb287912e425240c9c5a7a414705]
class Periodo--><rect codeLine="14" fill="#FEFECE" filter="url(#f1lcb4hh29z3jm)" height="73.6094" id="Periodo" style="stroke: #A80036; stroke-width: 1.5;" width="141" x="122.5" y="26"/><ellipse cx="164.95" cy="42" fill="#ADD1B2" rx="11" ry="11" style="stroke: #A80036; stroke-width: 1.0;"/><path d="M167.9188,47.6406 Q167.3406,47.9375 166.7,48.0781 Q166.0594,48.2344 165.3563,48.2344 Q162.8563,48.2344 161.5281,46.5938 Q160.2156,44.9375 160.2156,41.8125 Q160.2156,38.6875 161.5281,37.0313 Q162.8563,35.375 165.3563,35.375 Q166.0594,35.375 166.7,35.5313 Q167.3563,35.6875 167.9188,35.9844 L167.9188,38.7031 Q167.2938,38.125 166.7,37.8594 Q166.1063,37.5781 165.4813,37.5781 Q164.1375,37.5781 163.45,38.6563 Q162.7625,39.7188 162.7625,41.8125 Q162.7625,43.9063 163.45,44.9844 Q164.1375,46.0469 165.4813,46.0469 Q166.1063,46.0469 166.7,45.7813 Q167.2938,45.5 167.9188,44.9219 L167.9188,47.6406 Z "/><text fill="#000000" font-family="sans-serif" font-size="12" lengthAdjust="spacingAndGlyphs" textLength="48" x="185.05" y="46.1543">Periodo</text><line style="stroke: #A80036; stroke-width: 1.5;" x1="123.5" x2="262.5" y1="58" y2="58"/><ellipse cx="133.5" cy="69" fill="none" rx="3" ry="3" style="stroke: #038048; stroke-width: 1.0;"/><text fill="#000000" font-family="sans-serif" font-size="11" lengthAdjust="spacingAndGlyphs" textLength="100" x="142.5" y="72.2104">fecha_inicio: Date</text><ellipse cx="133.5" cy="81.8047" fill="none" rx="3" ry="3" style="stroke: #038048; stroke-width: 1.0;"/><text fill="#000000" font-family="sans-serif" font-size="11" lengthAdjust="spacingAndGlyphs" textLength="115" x="142.5" y="85.0151">fecha_termino: Date</text><line style="stroke: #A80036; stroke-width: 1.5;" x1="123.5" x2="262.5" y1="91.6094" y2="91.6094"/><!--MD5=[ca80e7bec461e8d817606d7c6a0acd7f]
class Hito--><rect codeLine="19" fill="#FEFECE" filter="url(#f1lcb4hh29z3jm)" height="112.0234" id="Hito" style="stroke: #A80036; stroke-width: 1.5;" width="140" x="270" y="179"/><ellipse cx="323.25" cy="195" fill="#ADD1B2" rx="11" ry="11" style="stroke: #A80036; stroke-width: 1.0;"/><path d="M326.2188,200.6406 Q325.6406,200.9375 325,201.0781 Q324.3594,201.2344 323.6563,201.2344 Q321.1563,201.2344 319.8281,199.5938 Q318.5156,197.9375 318.5156,194.8125 Q318.5156,191.6875 319.8281,190.0313 Q321.1563,188.375 323.6563,188.375 Q324.3594,188.375 325,188.5313 Q325.6563,188.6875 326.2188,188.9844 L326.2188,191.7031 Q325.5938,191.125 325,190.8594 Q324.4063,190.5781 323.7813,190.5781 Q322.4375,190.5781 321.75,191.6563 Q321.0625,192.7188 321.0625,194.8125 Q321.0625,196.9063 321.75,197.9844 Q322.4375,199.0469 323.7813,199.0469 Q324.4063,199.0469 325,198.7813 Q325.5938,198.5 326.2188,197.9219 L326.2188,200.6406 Z "/><text fill="#000000" font-family="sans-serif" font-size="12" lengthAdjust="spacingAndGlyphs" textLength="25" x="343.75" y="199.1543">Hito</text><line style="stroke: #A80036; stroke-width: 1.5;" x1="271" x2="409" y1="211" y2="211"/><ellipse cx="281" cy="222" fill="none" rx="3" ry="3" style="stroke: #038048; stroke-width: 1.0;"/><text fill="#000000" font-family="sans-serif" font-size="11" lengthAdjust="spacingAndGlyphs" textLength="95" x="290" y="225.2104">categoria: String</text><ellipse cx="281" cy="234.8047" fill="none" rx="3" ry="3" style="stroke: #038048; stroke-width: 1.0;"/><text fill="#000000" font-family="sans-serif" font-size="11" lengthAdjust="spacingAndGlyphs" textLength="94" x="290" y="238.0151">periodo: Periodo</text><ellipse cx="281" cy="247.6094" fill="none" rx="3" ry="3" style="stroke: #038048; stroke-width: 1.0;"/><text fill="#000000" font-family="sans-serif" font-size="11" lengthAdjust="spacingAndGlyphs" textLength="89" x="290" y="250.8198">testigo: Testigo</text><ellipse cx="281" cy="260.4141" fill="none" rx="3" ry="3" style="stroke: #038048; stroke-width: 1.0;"/><text fill="#000000" font-family="sans-serif" font-size="11" lengthAdjust="spacingAndGlyphs" textLength="92" x="290" y="263.6245">actividad: String</text><ellipse cx="281" cy="273.2188" fill="none" rx="3" ry="3" style="stroke: #038048; stroke-width: 1.0;"/><text fill="#000000" font-family="sans-serif" font-size="11" lengthAdjust="spacingAndGlyphs" textLength="114" x="290" y="276.4292">evidencia: Evidencia</text><line style="stroke: #A80036; stroke-width: 1.5;" x1="271" x2="409" y1="283.0234" y2="283.0234"/><!--MD5=[7922512b4dc1ba17bd0a385967a543a2]
class Evidencia--><rect codeLine="27" fill="#FEFECE" filter="url(#f1lcb4hh29z3jm)" height="60.8047" id="Evidencia" style="stroke: #A80036; stroke-width: 1.5;" width="128" x="299" y="32.5"/><ellipse cx="330.65" cy="48.5" fill="#ADD1B2" rx="11" ry="11" style="stroke: #A80036; stroke-width: 1.0;"/><path d="M333.6188,54.1406 Q333.0406,54.4375 332.4,54.5781 Q331.7594,54.7344 331.0563,54.7344 Q328.5563,54.7344 327.2281,53.0938 Q325.9156,51.4375 325.9156,48.3125 Q325.9156,45.1875 327.2281,43.5313 Q328.5563,41.875 331.0563,41.875 Q331.7594,41.875 332.4,42.0313 Q333.0563,42.1875 333.6188,42.4844 L333.6188,45.2031 Q332.9938,44.625 332.4,44.3594 Q331.8063,44.0781 331.1813,44.0781 Q329.8375,44.0781 329.15,45.1563 Q328.4625,46.2188 328.4625,48.3125 Q328.4625,50.4063 329.15,51.4844 Q329.8375,52.5469 331.1813,52.5469 Q331.8063,52.5469 332.4,52.2813 Q332.9938,52 333.6188,51.4219 L333.6188,54.1406 Z "/><text fill="#000000" font-family="sans-serif" font-size="12" lengthAdjust="spacingAndGlyphs" textLength="59" x="348.35" y="52.6543">Evidencia</text><line style="stroke: #A80036; stroke-width: 1.5;" x1="300" x2="426" y1="64.5" y2="64.5"/><ellipse cx="310" cy="75.5" fill="none" rx="3" ry="3" style="stroke: #038048; stroke-width: 1.0;"/><text fill="#000000" font-family="sans-serif" font-size="11" lengthAdjust="spacingAndGlyphs" textLength="102" x="319" y="78.7104">data : URL | Bloob</text><line style="stroke: #A80036; stroke-width: 1.5;" x1="300" x2="426" y1="85.3047" y2="85.3047"/><!--MD5=[75e368709416e1d3cfc67e237fa11704]
class Testigo--><rect codeLine="31" fill="#FEFECE" filter="url(#f1lcb4hh29z3jm)" height="60.8047" id="Testigo" style="stroke: #A80036; stroke-width: 1.5;" width="112" x="462" y="32.5"/><ellipse cx="492.3" cy="48.5" fill="#ADD1B2" rx="11" ry="11" style="stroke: #A80036; stroke-width: 1.0;"/><path d="M495.2688,54.1406 Q494.6906,54.4375 494.05,54.5781 Q493.4094,54.7344 492.7063,54.7344 Q490.2063,54.7344 488.8781,53.0938 Q487.5656,51.4375 487.5656,48.3125 Q487.5656,45.1875 488.8781,43.5313 Q490.2063,41.875 492.7063,41.875 Q493.4094,41.875 494.05,42.0313 Q494.7063,42.1875 495.2688,42.4844 L495.2688,45.2031 Q494.6438,44.625 494.05,44.3594 Q493.4563,44.0781 492.8313,44.0781 Q491.4875,44.0781 490.8,45.1563 Q490.1125,46.2188 490.1125,48.3125 Q490.1125,50.4063 490.8,51.4844 Q491.4875,52.5469 492.8313,52.5469 Q493.4563,52.5469 494.05,52.2813 Q494.6438,52 495.2688,51.4219 L495.2688,54.1406 Z "/><text fill="#000000" font-family="sans-serif" font-size="12" lengthAdjust="spacingAndGlyphs" textLength="46" x="509.7" y="52.6543">Testigo</text><line style="stroke: #A80036; stroke-width: 1.5;" x1="463" x2="573" y1="64.5" y2="64.5"/><ellipse cx="473" cy="75.5" fill="none" rx="3" ry="3" style="stroke: #038048; stroke-width: 1.0;"/><text fill="#000000" font-family="sans-serif" font-size="11" lengthAdjust="spacingAndGlyphs" textLength="86" x="482" y="78.7104">nombre: String</text><line style="stroke: #A80036; stroke-width: 1.5;" x1="463" x2="573" y1="85.3047" y2="85.3047"/><!--MD5=[f87c151e8ecdd16d4e2cc712c9b1ec00]
class Expertiz--><rect codeLine="39" fill="#FEFECE" filter="url(#f1lcb4hh29z3jm)" height="99.2188" id="Expertiz" style="stroke: #A80036; stroke-width: 1.5;" width="80" x="7" y="13.5"/><ellipse cx="22" cy="29.5" fill="#EB937F" rx="11" ry="11" style="stroke: #A80036; stroke-width: 1.0;"/><path d="M26.1094,35.5 L18.3906,35.5 L18.3906,23.1094 L26.1094,23.1094 L26.1094,25.2656 L20.8438,25.2656 L20.8438,27.9375 L25.6094,27.9375 L25.6094,30.0938 L20.8438,30.0938 L20.8438,33.3438 L26.1094,33.3438 L26.1094,35.5 Z "/><text fill="#000000" font-family="sans-serif" font-size="12" lengthAdjust="spacingAndGlyphs" textLength="48" x="36" y="33.6543">Expertiz</text><line style="stroke: #A80036; stroke-width: 1.5;" x1="8" x2="86" y1="45.5" y2="45.5"/><text fill="#000000" font-family="sans-serif" font-size="11" lengthAdjust="spacingAndGlyphs" textLength="43" x="13" y="59.7104">BASICO</text><text fill="#000000" font-family="sans-serif" font-size="11" lengthAdjust="spacingAndGlyphs" textLength="68" x="13" y="72.5151">INTERMEDIO</text><text fill="#000000" font-family="sans-serif" font-size="11" lengthAdjust="spacingAndGlyphs" textLength="62" x="13" y="85.3198">AVANZADO</text><text fill="#000000" font-family="sans-serif" font-size="11" lengthAdjust="spacingAndGlyphs" textLength="51" x="13" y="98.1245">EXPERTO</text><line style="stroke: #A80036; stroke-width: 1.5;" x1="8" x2="86" y1="104.7188" y2="104.7188"/><!--MD5=[1fbd812e1312558e3504804196c64f30]
class Nombre--><rect codeLine="46" fill="#FEFECE" filter="url(#f1lcb4hh29z3jm)" height="86.4141" id="Nombre" style="stroke: #A80036; stroke-width: 1.5;" width="166" x="445" y="192"/><ellipse cx="499.25" cy="208" fill="#ADD1B2" rx="11" ry="11" style="stroke: #A80036; stroke-width: 1.0;"/><path d="M502.2188,213.6406 Q501.6406,213.9375 501,214.0781 Q500.3594,214.2344 499.6563,214.2344 Q497.1563,214.2344 495.8281,212.5938 Q494.5156,210.9375 494.5156,207.8125 Q494.5156,204.6875 495.8281,203.0313 Q497.1563,201.375 499.6563,201.375 Q500.3594,201.375 501,201.5313 Q501.6563,201.6875 502.2188,201.9844 L502.2188,204.7031 Q501.5938,204.125 501,203.8594 Q500.4063,203.5781 499.7813,203.5781 Q498.4375,203.5781 497.75,204.6563 Q497.0625,205.7188 497.0625,207.8125 Q497.0625,209.9063 497.75,210.9844 Q498.4375,212.0469 499.7813,212.0469 Q500.4063,212.0469 501,211.7813 Q501.5938,211.5 502.2188,210.9219 L502.2188,213.6406 Z "/><text fill="#000000" font-family="sans-serif" font-size="12" lengthAdjust="spacingAndGlyphs" textLength="49" x="519.75" y="212.1543">Nombre</text><line style="stroke: #A80036; stroke-width: 1.5;" x1="446" x2="610" y1="224" y2="224"/><ellipse cx="456" cy="235" fill="none" rx="3" ry="3" style="stroke: #038048; stroke-width: 1.0;"/><text fill="#000000" font-family="sans-serif" font-size="11" lengthAdjust="spacingAndGlyphs" textLength="86" x="465" y="238.2104">nombre: String</text><ellipse cx="456" cy="247.8047" fill="none" rx="3" ry="3" style="stroke: #038048; stroke-width: 1.0;"/><text fill="#000000" font-family="sans-serif" font-size="11" lengthAdjust="spacingAndGlyphs" textLength="136" x="465" y="251.0151">apellido_paterno: String</text><ellipse cx="456" cy="260.6094" fill="none" rx="3" ry="3" style="stroke: #038048; stroke-width: 1.0;"/><text fill="#000000" font-family="sans-serif" font-size="11" lengthAdjust="spacingAndGlyphs" textLength="140" x="465" y="263.8198">apellido_materno: String</text><line style="stroke: #A80036; stroke-width: 1.5;" x1="446" x2="610" y1="270.4141" y2="270.4141"/><!--MD5=[ac3b943e7f6c04b42c6171453b0f2ab1]
class Canal--><rect codeLine="52" fill="#FEFECE" filter="url(#f1lcb4hh29z3jm)" height="73.6094" id="Canal" style="stroke: #A80036; stroke-width: 1.5;" width="96" x="646" y="198"/><ellipse cx="674.05" cy="214" fill="#B4A7E5" rx="11" ry="11" style="stroke: #A80036; stroke-width: 1.0;"/><path d="M669.9719,209.7656 L669.9719,207.6094 L677.3625,207.6094 L677.3625,209.7656 L674.8938,209.7656 L674.8938,217.8438 L677.3625,217.8438 L677.3625,220 L669.9719,220 L669.9719,217.8438 L672.4406,217.8438 L672.4406,209.7656 L669.9719,209.7656 Z "/><text fill="#000000" font-family="sans-serif" font-size="12" font-style="italic" lengthAdjust="spacingAndGlyphs" textLength="35" x="690.95" y="218.1543">Canal</text><line style="stroke: #A80036; stroke-width: 1.5;" x1="647" x2="741" y1="230" y2="230"/><ellipse cx="657" cy="241" fill="none" rx="3" ry="3" style="stroke: #038048; stroke-width: 1.0;"/><text fill="#000000" font-family="sans-serif" font-size="11" lengthAdjust="spacingAndGlyphs" textLength="62" x="666" y="244.2104">tipo: Medio</text><ellipse cx="657" cy="253.8047" fill="none" rx="3" ry="3" style="stroke: #038048; stroke-width: 1.0;"/><text fill="#000000" font-family="sans-serif" font-size="11" lengthAdjust="spacingAndGlyphs" textLength="70" x="666" y="257.0151">valor: String</text><line style="stroke: #A80036; stroke-width: 1.5;" x1="647" x2="741" y1="263.6094" y2="263.6094"/><!--MD5=[41fc259ba36dc2e6c61848700e4e2fe5]
class Medio--><rect codeLine="57" fill="#FEFECE" filter="url(#f1lcb4hh29z3jm)" height="112.0234" id="Medio" style="stroke: #A80036; stroke-width: 1.5;" width="123" x="632.5" y="7"/><ellipse cx="671.8" cy="23" fill="#EB937F" rx="11" ry="11" style="stroke: #A80036; stroke-width: 1.0;"/><path d="M675.9094,29 L668.1906,29 L668.1906,16.6094 L675.9094,16.6094 L675.9094,18.7656 L670.6438,18.7656 L670.6438,21.4375 L675.4094,21.4375 L675.4094,23.5938 L670.6438,23.5938 L670.6438,26.8438 L675.9094,26.8438 L675.9094,29 Z "/><text fill="#000000" font-family="sans-serif" font-size="12" lengthAdjust="spacingAndGlyphs" textLength="37" x="691.2" y="27.1543">Medio</text><line style="stroke: #A80036; stroke-width: 1.5;" x1="633.5" x2="754.5" y1="39" y2="39"/><text fill="#000000" font-family="sans-serif" font-size="11" lengthAdjust="spacingAndGlyphs" textLength="32" x="638.5" y="53.2104">EMAIL</text><text fill="#000000" font-family="sans-serif" font-size="11" lengthAdjust="spacingAndGlyphs" textLength="59" x="638.5" y="66.0151">TELEFONO</text><text fill="#000000" font-family="sans-serif" font-size="11" lengthAdjust="spacingAndGlyphs" textLength="111" x="638.5" y="78.8198">DIRECCION_POSTAL</text><text fill="#000000" font-family="sans-serif" font-size="11" lengthAdjust="spacingAndGlyphs" textLength="24" x="638.5" y="91.6245">WEB</text><text fill="#000000" font-family="sans-serif" font-size="11" lengthAdjust="spacingAndGlyphs" textLength="24" x="638.5" y="104.4292">GPS</text><line style="stroke: #A80036; stroke-width: 1.5;" x1="633.5" x2="754.5" y1="111.0234" y2="111.0234"/><!--MD5=[63a87d7c3fdf76a4ba303808032b315c]
reverse link Evidencia to Hito--><path codeLine="35" d="M356.3,113.52 C353.52,134.04 350.29,157.92 347.44,178.99 " fill="none" id="Evidencia-backto-Hito" style="stroke: #A80036; stroke-width: 1.0;"/><polygon fill="none" points="349.38,112.49,358.99,93.61,363.25,114.37,349.38,112.49" style="stroke: #A80036; stroke-width: 1.0;"/><!--MD5=[167cb9ac5fedbc456a40edb914a85d18]
reverse link Periodo to Hito--><path codeLine="37" d="M237.45,115.4 C254.8,135.47 274.72,158.51 292.37,178.92 " fill="none" id="Periodo-backto-Hito" style="stroke: #A80036; stroke-width: 1.0;"/><polygon fill="none" points="231.96,119.76,224.17,100.05,242.55,110.6,231.96,119.76" style="stroke: #A80036; stroke-width: 1.0;"/><!--MD5=[24ca426e7018ae3f5708abee8d7e7368]
reverse link Medio to Canal--><path codeLine="65" d="M694,139.46 C694,159.75 694,180.77 694,197.82 " fill="none" id="Medio-backto-Canal" style="stroke: #A80036; stroke-width: 1.0;"/><polygon fill="none" points="687,139.19,694,119.19,701,139.19,687,139.19" style="stroke: #A80036; stroke-width: 1.0;"/><!--MD5=[11036cbbdc125e530f9387a3cadf9fb1]
link Nombre to Profesionista--><path codeLine="67" d="M503.79,278.11 C494.11,294.96 482.71,314.77 471.97,333.45 " fill="none" id="Nombre-to-Profesionista" style="stroke: #A80036; stroke-width: 1.0;"/><polygon fill="none" points="477.99,337.03,461.96,350.88,465.86,330.05,477.99,337.03" style="stroke: #A80036; stroke-width: 1.0;"/><!--MD5=[28b6f70f03a952bced207b6a619978ce]
link Canal to Profesionista--><path codeLine="68" d="M653.7,272.17 C645.73,278.72 637.27,285.28 629,291 C598.49,312.1 563.53,332.59 531.71,349.98 " fill="none" id="Canal-to-Profesionista" style="stroke: #A80036; stroke-width: 1.0;"/><polygon fill="none" points="534.83,356.25,513.9,359.57,528.19,343.92,534.83,356.25" style="stroke: #A80036; stroke-width: 1.0;"/><!--MD5=[2ed16319a4d82377810447048f8db6bf]
link Habilidad to Profesionista--><path codeLine="69" d="M172.13,266.95 C218.45,290.39 283.02,323.08 336.45,350.12 " fill="none" id="Habilidad-to-Profesionista" style="stroke: #A80036; stroke-width: 1.0;"/><polygon fill="none" points="339.78,343.96,354.47,359.24,333.46,356.45,339.78,343.96" style="stroke: #A80036; stroke-width: 1.0;"/><!--MD5=[56b0fadfe8d54282f59ad850a738894b]
link Hito to Profesionista--><path codeLine="70" d="M371.82,291.35 C379.53,304.75 387.84,319.21 395.8,333.06 " fill="none" id="Hito-to-Profesionista" style="stroke: #A80036; stroke-width: 1.0;"/><polygon fill="none" points="402.09,329.95,405.99,350.78,389.95,336.93,402.09,329.95" style="stroke: #A80036; stroke-width: 1.0;"/><!--MD5=[7362ae94a8be7107e69b23d5c2d6014e]
reverse link Testigo to Hito--><path codeLine="72" d="M472.48,107.47 C449.69,129.24 421.86,155.82 397.6,178.99 " fill="none" id="Testigo-backto-Hito" style="stroke: #A80036; stroke-width: 1.0;"/><polygon fill="none" points="467.7,102.36,486.99,93.61,477.37,112.49,467.7,102.36" style="stroke: #A80036; stroke-width: 1.0;"/><!--MD5=[c3fb504d58799d3bd32ed625c1f674bc]
reverse link Expertiz to Habilidad--><path codeLine="74" d="M72.46,131.64 C80.13,151.99 88.31,173.73 95.16,191.91 " fill="none" id="Expertiz-backto-Habilidad" style="stroke: #A80036; stroke-width: 1.0;"/><polygon fill="none" points="65.84,133.9,65.34,112.72,78.94,128.97,65.84,133.9" style="stroke: #A80036; stroke-width: 1.0;"/><!--MD5=[8d293c3ecd058759ee389541b1b14669]
@startuml
  class Profesionista {
    + nombre: Nombre
    + canal: Canal[]
    + hitos: Hito[]
    + habilidades: Habilidad[]
  }

  class Habilidad {
    + categoria: String
    + nombre: String
    + expertiz: Expertiz
  }

  class Periodo {
    + fecha_inicio: Date
    + fecha_termino: Date
  }

  class Hito {
    + categoria: String
    + periodo: Periodo
    + testigo: Testigo
    + actividad: String
    + evidencia: Evidencia
  }

  class Evidencia {
    + data : URL | Bloob
  }

  class Testigo {
    + nombre: String
  }

  Evidencia <|- - Hito

  Periodo <|- - Hito

  enum Expertiz {
      BASICO
      INTERMEDIO
      AVANZADO
      EXPERTO
  }

  class Nombre {
    + nombre: String
    + apellido_paterno: String
    + apellido_materno: String
  }

  interface Canal{
      + tipo: Medio
      + valor: String
  }

  enum Medio {
    EMAIL
    TELEFONO
    DIRECCION_POSTAL
    WEB
    GPS
  }

  Medio <|- - Canal

  Nombre - -|> Profesionista
  Canal - -|> Profesionista
  Habilidad - -|> Profesionista
  Hito - -|> Profesionista

  Testigo <|- - Hito

  Expertiz <|- - Habilidad
@enduml

PlantUML version 1.2020.17(Sat Sep 19 07:30:11 CDT 2020)
(GPL source distribution)
Java Runtime: OpenJDK Runtime Environment
JVM: OpenJDK 64-Bit Server VM
Default Encoding: UTF-8
Language: en
Country: US
--></g></svg>